<svg width="126" height="112" viewBox="0 0 126 112" fill="none" xmlns="http://www.w3.org/2000/svg">
<path d="M88.6573 0.95462C73.8452 0.95462 61.0637 9.64351 55.0508 22.1889C57.0184 23.2435 58.7499 24.6602 60.198 26.3759C64.8573 15.2472 75.86 7.40832 88.6573 7.40832C105.673 7.40832 119.509 21.2444 119.509 38.2602C119.509 44.2259 117.809 50.0185 114.582 55.0083C111.56 59.6676 107.357 63.4296 102.399 65.8852H91.8841V55.4963C97.2517 55.4805 103.501 53.4972 106.649 50.1287C109.419 47.3583 111.198 43.2972 111.796 38.3704C112.221 34.813 111.906 31.9796 111.891 31.8694C111.717 30.3898 110.537 29.2093 109.057 29.0361C108.931 29.0204 106.098 28.6898 102.556 29.1305C97.6295 29.7287 93.5526 31.5074 90.798 34.2778C89.9952 35.0805 89.2869 35.9935 88.6573 37.0009C88.0276 35.9935 87.3193 35.0805 86.5165 34.2778C83.7462 31.5074 79.685 29.7287 74.7582 29.1305C71.2008 28.6898 68.3675 29.0204 68.2573 29.0361C66.7776 29.2093 65.5971 30.3741 65.4239 31.8694C65.4082 31.9796 65.0934 34.813 65.5184 38.3704C66.1165 43.2972 67.8952 47.3583 70.6656 50.1287C73.8137 53.4972 80.0786 55.4805 85.4461 55.4963V65.8852H74.9313C70.0202 63.4454 65.8647 59.7305 62.8424 55.1185C62.5906 56.2361 62.323 57.3852 62.0239 58.5815L61.8193 59.4C61.6304 60.6907 61.3313 61.9342 60.9693 63.162C62.7795 65.1611 64.7628 66.987 66.9508 68.5611C65.1091 70.3241 63.96 72.7954 63.96 75.55C63.96 75.6287 63.9758 75.6917 63.9758 75.7861C67.6591 78.2417 70.7286 81.5 73.0267 85.3565C73.2313 85.325 73.4045 85.2305 73.6249 85.2305H103.721C105.5 85.2305 106.948 86.6787 106.948 88.4574C106.948 90.2361 105.5 91.6842 103.721 91.6842H75.9073C76.5999 93.7305 77.0878 95.887 77.3869 98.138H78.9767V101.365C78.9767 106.701 83.3212 111.045 88.6573 111.045C93.9934 111.045 98.3378 106.717 98.3378 101.365V98.138H103.721C109.057 98.138 113.402 93.7935 113.402 88.4731C113.402 86.0018 112.473 83.7352 110.93 82.0194C112.457 80.3037 113.402 78.037 113.402 75.5657C113.402 72.8268 112.253 70.3398 110.411 68.5768C114.189 65.8694 117.447 62.4537 120.013 58.5185C123.917 52.4898 125.979 45.4852 125.979 38.2602C125.963 17.7028 109.23 0.95462 88.6573 0.95462ZM95.3628 38.8426C98.1332 36.0722 102.667 35.4583 105.579 35.3639C105.484 38.2602 104.87 42.7935 102.1 45.5639C99.3295 48.3343 94.7962 48.9639 91.8999 49.0426C91.9786 46.1463 92.5924 41.613 95.3628 38.8426ZM75.2147 45.5796C72.4443 42.8092 71.8304 38.2759 71.736 35.3796C74.648 35.4583 79.1656 36.0722 81.9517 38.8583C84.7221 41.6287 85.336 46.162 85.4304 49.0583C82.5184 48.9639 78.0008 48.35 75.2147 45.5796ZM91.8841 101.365C91.8841 103.144 90.436 104.592 88.6573 104.592C86.8786 104.592 85.4304 103.144 85.4304 101.365V98.138H91.8841V101.365ZM103.705 78.7926H73.6091C71.8304 78.7926 70.3823 77.3444 70.3823 75.5657C70.3823 73.787 71.8304 72.3389 73.6091 72.3389H103.705C105.484 72.3389 106.932 73.787 106.932 75.5657C106.932 77.3444 105.484 78.7926 103.705 78.7926Z" fill="white"/>
<path d="M50.1399 83.688L50.2186 74.637C52.4853 71.8352 54.0121 68.4194 54.4686 64.7204L54.7519 63.5556C57.0658 54.363 57.538 49.0898 57.538 46.3037C57.538 38.213 52.5167 33.5065 46.9917 32.7194C45.5908 30.2482 41.813 26.7065 34.2575 26.7065C20.2325 26.7065 12.8816 36.4972 12.8816 46.162C12.8816 53.3083 15.4788 62.6111 15.7778 63.65L15.8723 63.9176C16.1871 67.9315 17.7454 71.6463 20.1695 74.6528V83.7352C8.56859 85.8759 0.572295 95.95 0.131555 108.448L0.0371094 111.045H70.3825L70.288 108.448C69.8316 95.8556 61.851 85.7343 50.1399 83.688ZM18.3751 51.9546C18.076 49.9398 17.8871 47.925 17.8871 46.1463C17.8871 38.9685 23.5066 31.6963 34.2417 31.6963C41.0417 31.6963 42.7417 35.3481 42.789 35.4269L43.938 37.5991H45.7482C49.1167 37.5991 52.5325 40.5898 52.5325 46.288C52.5325 47.1065 52.4695 48.2241 52.3279 49.5778L49.6519 46.8704V46.9648C49.6204 46.9333 49.6047 46.9176 49.5732 46.8861C47.4954 44.9657 45.5593 43.9583 45.3862 43.8796L43.639 43.2657L42.0964 44.0843C42.0334 44.1157 36.4927 47.9093 27.7566 47.9093C24.3093 47.925 20.7047 49.2157 18.3751 51.9546ZM38.8853 76.3685L37.7047 76.5102L36.9649 77.25L36.4927 77.8954C36.3825 78.0843 34.5251 78.6509 33.6593 77.5176L32.2427 76.3685H31.5343C25.4584 74.7157 21.2084 69.4426 20.8149 63.2565V59.4157C20.8149 58.3139 21.0353 57.4482 21.3343 56.6926L21.5232 56.2046C23.0028 53.2454 26.4658 52.9306 27.7251 52.9306C29.3936 52.9306 30.9362 52.7889 32.3843 52.6L33.6121 52.4269C38.6334 51.5611 42.2223 49.8139 43.8908 48.8694H43.9066C45.5593 49.9241 49.2269 52.8046 49.6047 57.212V62.3593C49.6519 69.0176 45.0871 74.8102 38.8853 76.3685ZM45.2288 78.9972V86.3324C44.6936 87.4972 42.4899 90.9759 35.2019 90.9759C30.401 90.9759 26.8908 89.3861 25.1751 86.3481V78.9815C26.7334 79.9259 28.4177 80.6972 30.2436 81.2009C31.5501 82.4917 33.4232 83.2787 35.3279 83.2787C37.3112 83.2787 39.1371 82.4759 40.2704 81.1537C42.0806 80.6657 43.7177 79.9259 45.2288 78.9972ZM5.38896 106.024C6.77415 97.2722 12.4723 90.4093 20.7677 88.725C22.3417 91.6843 26.1825 95.9972 35.2019 95.9972C44.851 95.9972 48.4556 91.0861 49.6519 88.6778C58.0103 90.3148 63.6297 97.2093 65.0306 106.024H5.38896Z" fill="white"/>
</svg>
