<svg width="30" height="26" viewBox="0 0 30 26" fill="none" xmlns="http://www.w3.org/2000/svg">
<path d="M1.12 9.62003C1.12 11.02 1.58 12.3 2.46 13.42C3.34 14.54 4.5 15.24 5.86 15.62C5.84 15.68 5.84 15.72 5.82 15.78C5 15.78 4.18 15.78 3.3 15.78C3.74 17.06 4.44 18.04 5.46 18.82C6.48 19.6 7.66 19.98 9.06 20.1C6.32 22.14 3.38 22.94 0 22.68C0.26 22.86 0.4 22.96 0.54 23.04C2.62 24.24 4.86 25.04 7.26 25.3C11.4 25.76 15.34 25.1 18.84 22.8C24.3 19.2 26.94 14.02 27.04 7.50003C27.04 7.16003 27.14 6.94003 27.4 6.70003C28.22 5.94003 28.98 5.12003 29.76 4.30003C29.86 4.20003 29.92 4.06003 30 3.92003C28.92 4.22003 27.88 4.48003 26.84 4.76003C26.82 4.72003 26.8 4.68003 26.78 4.62003C27.94 3.80003 28.8 2.78003 29.24 1.50003C28.1 1.90003 26.98 2.30003 25.84 2.72003C25.52 2.84003 25.32 2.74003 25.06 2.52003C23.2 0.880033 21.04 0.400033 18.7 1.28003C16.34 2.12003 15 3.88003 14.68 6.36003C14.6 7.04003 14.66 7.74003 14.66 8.46003C9.54 8.10003 5.34 5.92003 2 2.00003C1.2 3.44003 0.98 4.92003 1.32 6.46003C1.66 8.00003 2.52 9.22003 3.78 10.18C3.76 10.22 3.72 10.28 3.7 10.32C2.84 10.1 2 9.86003 1.12 9.62003Z" fill="white"/>
</svg>
