<svg width="30" height="30" viewBox="0 0 30 30" fill="none" xmlns="http://www.w3.org/2000/svg">
<path d="M29.5601 8.67996C29.3201 7.17996 28.7201 5.81996 27.1601 5.21996C26.5201 4.97996 25.8201 4.83996 25.1201 4.79996C21.7401 4.65996 18.3801 4.55996 15.0001 4.45996C15.0001 4.47996 15.0001 4.51996 15.0001 4.53996C14.1801 4.53996 13.3601 4.51996 12.5601 4.53996C9.7001 4.63996 6.8201 4.71996 3.9601 4.89996C2.7001 4.99996 1.6401 5.61996 1.0801 6.79996C0.700098 7.61996 0.400098 8.51996 0.340098 9.39996C0.180098 12.12 0.100098 14.82 0.100098 17.54C0.100098 18.84 0.240098 20.14 0.440098 21.42C0.820098 23.76 1.9801 24.92 4.1401 25.2C5.1401 25.32 6.1401 25.42 7.1601 25.44C10.9601 25.5 14.7601 25.58 18.5601 25.56C21.0201 25.54 23.4801 25.38 25.9401 25.22C27.2601 25.14 28.3601 24.52 28.9201 23.3C29.3001 22.48 29.6001 21.58 29.6601 20.7C29.8201 18 29.9001 15.28 29.9001 12.56C29.9001 11.26 29.7601 9.93996 29.5601 8.67996ZM12.0401 18.8C12.0401 16.06 12.0401 13.4 12.0401 10.66C14.6601 12.02 17.2001 13.34 19.8801 14.74C17.2401 16.12 14.6801 17.44 12.0401 18.8Z" fill="white"/>
</svg>
