<svg width="31" height="30" viewBox="0 0 31 30" fill="none" xmlns="http://www.w3.org/2000/svg">
<g clip-path="url(#clip0_441_1151)">
<path d="M30.5502 7.45997C30.0502 4.43997 28.5302 2.13997 25.6302 0.919971C24.4302 0.419971 23.1102 0.219971 21.8102 0.219971C17.7902 0.219971 13.7702 0.219971 9.85015 0.219971C8.25015 0.219971 6.63015 0.519971 5.13015 1.31997C2.41015 2.83997 1.19015 5.23997 0.990148 8.25997C0.790148 10.38 0.890148 12.68 0.890148 14.9C0.890148 16.7 0.790148 18.52 0.890148 20.42C0.890148 21.12 0.890148 21.82 0.990148 22.54C1.39015 25.36 2.79015 27.66 5.51015 28.88C6.91015 29.48 8.33015 29.78 9.83015 29.78C13.5502 29.78 17.3702 29.78 21.0902 29.78C21.8902 29.78 22.6902 29.68 23.5102 29.58C26.5302 29.08 28.8302 27.56 29.9502 24.56C30.4502 23.36 30.6502 22.04 30.6502 20.74C30.6502 17.02 30.6502 13.3 30.6502 9.57997C30.6502 8.85997 30.6502 8.15997 30.5502 7.45997ZM27.9302 20.42C27.9302 21.32 27.8302 22.22 27.5302 23.14C26.8302 25.36 25.1102 26.56 22.9102 26.66C20.0902 26.86 17.2702 26.76 14.4702 26.86C12.5502 26.86 10.7501 26.86 8.83015 26.76C6.01015 26.56 4.11015 24.64 3.71015 21.84C3.61015 21.34 3.61015 20.84 3.61015 20.34C3.61015 16.62 3.61015 12.9 3.61015 9.17997C3.61015 8.27997 3.81015 7.37997 4.01015 6.55997C4.71015 4.33997 6.43015 3.23997 8.63015 3.03997C10.5501 2.93997 12.5502 2.93997 14.4702 2.83997C14.9702 2.83997 15.3702 2.93997 15.7702 2.93997C17.7902 2.93997 19.6902 2.93997 21.7102 2.93997C22.3102 2.93997 23.0102 3.03997 23.6302 3.13997C26.0502 3.63997 27.5502 5.45997 27.8502 7.85997C27.9502 8.35997 27.9502 8.95997 27.9502 9.45997C27.9302 13.08 27.9302 16.8 27.9302 20.42Z" fill="white"/>
<path d="M15.7702 8.02002C11.3502 8.02002 7.93018 11.54 7.93018 15.96C7.93018 20.28 11.4502 23.8 15.8702 23.7C20.1902 23.7 23.6102 20.18 23.6102 15.86C23.6102 11.54 20.0902 8.02002 15.7702 8.02002ZM15.8702 20.9C12.9502 21 10.7502 18.68 10.7502 15.86C10.7502 13.04 12.9502 10.84 15.7702 10.74C18.5902 10.74 20.7902 12.96 20.8902 15.76C20.8902 18.58 18.6902 20.8 15.8702 20.9Z" fill="white"/>
<path d="M23.6104 9.64004C24.5104 9.64004 25.2104 8.94004 25.2104 8.14004C25.2104 7.24004 24.5104 6.54004 23.7104 6.54004C22.8104 6.54004 22.1104 7.24004 22.1104 8.14004C22.1104 8.92004 22.8104 9.64004 23.6104 9.64004Z" fill="white"/>
</g>
<defs>
<clipPath id="clip0_441_1151">
<rect width="30" height="30" fill="white" transform="translate(0.75)"/>
</clipPath>
</defs>
</svg>
