<svg width="31" height="30" viewBox="0 0 31 30" fill="none" xmlns="http://www.w3.org/2000/svg">
<path d="M0.600098 15.9001C0.600098 15.3201 0.600098 14.7401 0.600098 14.1601C0.620098 14.0601 0.640098 13.9801 0.660098 13.8801C0.820098 12.9601 0.900098 12.0001 1.1401 11.1201C3.4001 2.9601 11.8401 -1.6799 19.9001 0.800097C27.3401 3.0801 31.8201 10.7801 30.0001 18.3601C28.7001 23.8001 25.2801 27.4001 20.0001 29.2201C19.1401 29.5201 18.2401 29.6601 17.3401 29.8601C17.3401 25.9001 17.3401 22.0401 17.3401 18.1201C18.5401 18.1201 19.7201 18.1201 20.9001 18.1201C21.0801 16.7201 21.2601 15.3601 21.4401 13.9601C20.0601 13.9601 18.7001 13.9601 17.3401 13.9601C17.3401 12.9201 17.3001 11.9201 17.3601 10.9401C17.4201 9.8601 17.9801 9.3601 19.0601 9.3201C19.8001 9.3001 20.5401 9.3001 21.2801 9.2801C21.3801 9.2801 21.4801 9.2601 21.6001 9.2601C21.6001 8.0601 21.6001 6.9001 21.6001 5.7401C21.6001 5.6801 21.4801 5.5401 21.4001 5.5401C20.2201 5.4801 19.0401 5.4001 17.8601 5.4201C16.7401 5.4401 15.7001 5.8201 14.8201 6.5601C13.6801 7.5401 13.1801 8.8201 13.1001 10.2801C13.0401 11.3801 13.0601 12.5001 13.0601 13.6001C13.0601 13.7201 13.0601 13.8201 13.0601 13.9801C11.8401 13.9801 10.6801 13.9801 9.5001 13.9801C9.5001 15.3801 9.5001 16.7401 9.5001 18.1401C10.7001 18.1401 11.8801 18.1401 13.0401 18.1401C13.0401 22.0001 13.0401 25.8401 13.0401 29.6601C13.0001 29.6601 12.9601 29.6801 12.9401 29.6601C11.6401 29.4401 10.3801 29.0401 9.1801 28.4601C6.9401 27.3801 5.0601 25.8601 3.5801 23.8601C2.1401 22.0201 1.2201 19.9401 0.840098 17.6201C0.740098 17.0601 0.680098 16.4801 0.600098 15.9001Z" fill="white"/>
</svg>
