<svg width="31" height="30" viewBox="0 0 31 30" fill="none" xmlns="http://www.w3.org/2000/svg">
<path d="M14.3101 0.100098C14.9301 0.100098 15.5501 0.100098 16.1701 0.100098C16.2501 0.120098 16.3101 0.140098 16.3901 0.140098C18.9501 0.340098 21.3101 1.1201 23.4301 2.5601C26.9701 4.9401 29.1301 8.2401 29.9101 12.4401C30.0101 12.9801 30.0701 13.5401 30.1301 14.0801C30.1301 14.7001 30.1301 15.3201 30.1301 15.9401C30.1101 16.0201 30.0901 16.0801 30.0901 16.1601C29.9901 16.8401 29.9301 17.5201 29.7901 18.2001C28.5701 24.0201 23.6901 28.7001 17.8301 29.6801C17.2701 29.7801 16.7301 29.8401 16.1701 29.9001C15.5501 29.9001 14.9301 29.9001 14.3101 29.9001C14.2501 29.8801 14.1901 29.8601 14.1101 29.8601C11.2701 29.6401 8.7101 28.7001 6.4301 27.0001C3.2701 24.6401 1.2901 21.5001 0.590098 17.6001C0.490098 17.0401 0.430098 16.5001 0.350098 15.9401C0.350098 15.3201 0.350098 14.7001 0.350098 14.0801C0.390098 13.7201 0.430098 13.3601 0.490098 12.9801C0.950098 9.7401 2.3101 6.9401 4.5901 4.6001C6.8301 2.3201 9.5301 0.880098 12.6901 0.320098C13.2301 0.240098 13.7701 0.180098 14.3101 0.100098ZM13.3701 10.7601C13.8301 10.7801 14.5901 10.8201 15.3701 10.8801C17.5501 11.0601 19.6701 11.4401 21.7101 12.2201C22.5301 12.5401 23.3101 12.9401 24.0901 13.3401C24.9701 13.7801 25.9301 13.3401 26.1301 12.3601C26.2701 11.6801 25.9701 11.0801 25.2901 10.7001C22.4101 9.0801 19.2701 8.3401 16.0101 8.0201C13.8901 7.8001 11.7301 7.8001 9.6101 8.0801C8.4101 8.2401 7.2101 8.5201 6.0301 8.7801C5.5101 8.9001 5.1701 9.2401 5.0101 9.7601C4.6901 10.9601 5.6501 11.8801 6.8701 11.5401C8.8901 10.9801 10.9501 10.7801 13.3701 10.7601ZM24.0901 17.0201C24.0901 16.4201 23.8901 16.0201 23.4701 15.7801C23.1301 15.5801 22.7901 15.3801 22.4301 15.2001C19.4101 13.6801 16.1901 13.0201 12.8301 13.0001C10.8501 13.0001 8.9101 13.2601 6.9901 13.7801C6.1901 14.0001 5.7901 14.6001 5.9901 15.3401C6.1701 16.0401 6.8101 16.3001 7.6101 16.1401C8.7301 15.9001 9.8501 15.6401 10.9701 15.5201C13.9701 15.2201 16.9101 15.6001 19.7301 16.6801C20.6501 17.0401 21.5101 17.5201 22.4101 17.9401C23.2301 18.3201 24.0701 17.7801 24.0901 17.0201ZM12.8101 17.8801C11.0701 17.8801 9.2101 18.1201 7.3701 18.5401C6.7701 18.6801 6.4501 19.2001 6.5901 19.7601C6.7301 20.3201 7.2101 20.6001 7.8301 20.4401C9.4901 20.0401 11.1701 19.8401 12.8701 19.8201C15.2101 19.8001 17.4301 20.2001 19.5501 21.2401C20.0301 21.4801 20.4901 21.7401 20.9901 21.9401C21.5301 22.1601 22.0701 21.8601 22.1901 21.3001C22.2901 20.8601 22.1101 20.4401 21.6901 20.1601C21.4101 19.9801 21.1101 19.8201 20.8101 19.6601C18.3501 18.3801 15.7101 17.8801 12.8101 17.8801Z" fill="white"/>
</svg>
